<svg width="135" height="135" viewBox="0 0 135 135" fill="none" xmlns="http://www.w3.org/2000/svg">
<path d="M10.2548 68.4089H12.1121C12.9462 91.1423 29.3464 110.78 51.7327 115.492C51.859 115.519 51.9853 115.531 52.1089 115.531C52.9503 115.531 53.7054 114.944 53.8853 114.088C54.0924 113.106 53.4637 112.143 52.4814 111.936C31.7679 107.575 16.579 89.4332 15.7467 68.4089H32.1223C33.0655 84.0994 46.1236 96.577 62.0477 96.577C62.283 96.577 62.5184 96.576 62.7537 96.5661C63.7569 96.5224 64.5338 95.6747 64.4901 94.6715C64.4465 93.6684 63.5997 92.8878 62.5956 92.9351C62.413 92.9433 62.2304 92.9424 62.0477 92.9424C48.1291 92.9424 36.7037 82.094 35.7669 68.4089H37.5143C38.5174 68.4089 39.3316 67.5948 39.3316 66.5916C39.3316 54.0659 49.5221 43.8755 62.0478 43.8755C63.0509 43.8755 63.8651 43.0613 63.8651 42.0581V40.3036C73.1096 40.9323 81.3147 46.3342 85.5699 54.7201C85.8907 55.3516 86.5294 55.7151 87.1919 55.7151C87.4681 55.7151 87.7489 55.6524 88.0124 55.518C88.9074 55.0636 89.2645 53.9705 88.8102 53.0755C83.9326 43.4638 74.4835 37.3287 63.8642 36.6935V20.2879C81.6164 20.9821 97.4714 31.7941 104.594 48.2324C104.891 48.9184 105.56 49.3282 106.263 49.3282C106.503 49.3282 106.749 49.2801 106.984 49.1774C107.905 48.7785 108.328 47.709 107.929 46.7877C100.231 29.0172 83.0675 17.3448 63.8651 16.6497V14.7987C63.8651 13.7956 63.0509 12.9814 62.0478 12.9814C32.4867 12.9814 8.4375 37.0306 8.4375 66.5916C8.4375 67.5947 9.25165 68.4089 10.2548 68.4089ZM60.2304 16.6487V40.3026C47.1459 41.1985 36.6546 51.6898 35.7587 64.7743H12.1048C13.0434 38.6607 34.1168 17.5874 60.2304 16.6487Z" fill="#42CBF2"/>
<path d="M52.0526 66.5918C52.0526 72.1027 56.5367 76.5869 62.0477 76.5869C67.5587 76.5869 72.0428 72.1028 72.0428 66.5918C72.0428 61.0808 67.5587 56.5967 62.0477 56.5967C56.5367 56.5967 52.0526 61.0809 52.0526 66.5918ZM62.0477 60.2313C65.555 60.2313 68.4082 63.0844 68.4082 66.5918C68.4082 70.0992 65.555 72.9523 62.0477 72.9523C58.5403 72.9523 55.6872 70.0992 55.6872 66.5918C55.6872 63.0844 58.5403 60.2313 62.0477 60.2313Z" fill="#42CBF2"/>
<path d="M90.7482 58.0371C87.4753 61.3101 85.6725 65.6616 85.6725 70.2902V76.4572C85.6725 78.399 84.9165 80.2245 83.5436 81.5974L60.3085 104.832C58.5003 106.641 57.5045 109.045 57.5045 111.601V112.446C57.5045 115.002 58.5003 117.406 60.3085 119.215C62.1168 121.023 64.5201 122.019 67.0779 122.019H67.9221C70.479 122.019 72.8833 121.023 74.6915 119.215L97.9265 95.9795C99.2995 94.6066 101.125 93.8506 103.067 93.8506H109.234C113.862 93.8506 118.214 92.0487 121.487 88.7749C124.76 85.5019 126.563 81.1504 126.563 76.5218V69.6933C126.563 67.9832 125.17 66.5912 123.46 66.5912C122.631 66.5912 121.851 66.9137 121.267 67.4998L112.023 76.7417L102.781 67.4998L112.024 58.257C112.609 57.6701 112.932 56.8923 112.932 56.0636C112.932 54.3535 111.54 52.9614 109.83 52.9614H103.001C98.3727 52.9614 94.0212 54.7633 90.7482 58.0371ZM100.211 64.9301C98.7934 66.3476 98.7934 68.6528 100.211 70.0703L109.453 79.3122C110.139 79.9982 111.052 80.3771 112.023 80.3771C112.995 80.3771 113.907 79.9982 114.593 79.3122L122.927 70.979V76.5217C122.927 80.1799 121.503 83.6191 118.916 86.2051C116.329 88.7912 112.891 90.2159 109.233 90.2159H103.066C100.153 90.2159 97.415 91.3499 95.356 93.4098L72.121 116.645C70.9997 117.766 69.5086 118.384 67.9212 118.384H67.0771C65.4906 118.384 63.9995 117.766 62.8773 116.645C61.7551 115.524 61.1391 114.032 61.1391 112.446V111.601C61.1391 110.015 61.757 108.523 62.8782 107.402L86.1132 84.167C88.1731 82.1071 89.3071 79.3694 89.3071 76.4572V70.2902C89.3071 66.632 90.731 63.1928 93.3179 60.6068C95.9048 58.0208 99.3432 56.596 103.001 56.596H108.545L100.211 64.9301Z" fill="#42CBF2"/>
<path d="M79.3119 70.2257C81.3193 70.2257 82.9465 68.5984 82.9465 66.5911C82.9465 64.5838 81.3193 62.9565 79.3119 62.9565C77.3046 62.9565 75.6774 64.5838 75.6774 66.5911C75.6774 68.5984 77.3046 70.2257 79.3119 70.2257Z" fill="#42CBF2"/>
<path d="M62.0477 52.9615C64.055 52.9615 65.6822 51.3343 65.6822 49.327C65.6822 47.3196 64.055 45.6924 62.0477 45.6924C60.0403 45.6924 58.4131 47.3196 58.4131 49.327C58.4131 51.3343 60.0403 52.9615 62.0477 52.9615Z" fill="#42CBF2"/>
<path d="M44.7834 70.2257C46.7907 70.2257 48.4179 68.5984 48.4179 66.5911C48.4179 64.5838 46.7907 62.9565 44.7834 62.9565C42.7761 62.9565 41.1488 64.5838 41.1488 66.5911C41.1488 68.5984 42.7761 70.2257 44.7834 70.2257Z" fill="#42CBF2"/>
<path d="M62.0477 87.4903C64.055 87.4903 65.6822 85.8631 65.6822 83.8558C65.6822 81.8485 64.055 80.2212 62.0477 80.2212C60.0403 80.2212 58.4131 81.8485 58.4131 83.8558C58.4131 85.8631 60.0403 87.4903 62.0477 87.4903Z" fill="#42CBF2"/>
</svg>
