<svg width="241" height="241" viewBox="0 0 241 241" fill="none" xmlns="http://www.w3.org/2000/svg">
<g clip-path="url(#clip0_113_41)">
<path d="M120.491 208.047C120.471 208.047 120.449 208.047 120.427 208.047C113.155 207.998 48.8668 207.411 30.6527 202.485C17.9235 199.064 7.87507 189.026 4.44408 176.295C-0.3218 158.403 -0.0184167 123.955 0.0146796 121.204C-0.016578 118.467 -0.323639 83.7338 4.42937 65.6944C4.43488 65.6779 4.43856 65.6595 4.44408 65.6429C7.83646 53.0571 18.111 42.709 30.6215 39.278C30.6527 39.2688 30.6858 39.2614 30.7171 39.2522C48.7252 34.5195 113.14 33.9403 120.427 33.8906H120.557C127.848 33.9403 192.306 34.5268 210.353 39.46C223.049 42.8726 233.09 52.8971 236.531 65.6117C241.475 83.6639 241.017 118.472 240.967 121.41C241.002 124.304 241.291 158.443 236.553 176.426C236.549 176.444 236.543 176.461 236.54 176.477C233.107 189.208 223.06 199.246 210.316 202.671C210.3 202.677 210.281 202.68 210.265 202.686C192.259 207.417 127.842 207.996 120.557 208.047C120.535 208.047 120.513 208.047 120.491 208.047ZM22.6287 70.5228C18.4438 86.4458 18.8392 120.736 18.8428 121.081V121.329C18.7178 130.839 19.1573 158.379 22.6305 171.423C24.3148 177.669 29.27 182.617 35.5547 184.306C48.9936 187.941 101.354 189.085 120.491 189.219C139.678 189.085 192.115 187.973 205.455 184.483C211.719 182.788 216.658 177.856 218.353 171.603C221.83 158.368 222.266 130.962 222.139 121.513C222.139 121.414 222.139 121.315 222.141 121.215C222.314 111.592 221.974 83.7301 218.37 70.5816C218.366 70.5688 218.362 70.5559 218.361 70.543C216.669 64.2694 211.712 59.3215 205.427 57.6318C192.119 53.993 139.674 52.853 120.491 52.7188C101.317 52.853 48.9311 53.9636 35.551 57.4497C29.3859 59.1597 24.3184 64.2841 22.6287 70.5228ZM96.4943 159.094V82.842L162.393 120.969L96.4943 159.094Z" fill="white"/>
</g>
<defs>
<clipPath id="clip0_113_41">
<rect width="241" height="241" fill="white"/>
</clipPath>
</defs>
</svg>
