<svg width="59" height="59" viewBox="0 0 59 59" fill="none" xmlns="http://www.w3.org/2000/svg">
<g clip-path="url(#clip0_35_632)">
<path d="M58.5625 22.7816L50.15 17.1734V6.88305C50.15 6.53792 49.968 6.21826 49.673 6.04034L39.8397 0.14034C39.528 -0.0464546 39.1387 -0.0464546 38.827 0.14034L29.5 5.73647L20.173 0.14034C19.8613 -0.0464546 19.472 -0.0464546 19.1603 0.14034L9.32696 6.04034C9.03196 6.21826 8.85 6.53792 8.85 6.88305V17.1735L0.437545 22.7818C0.164209 22.9647 0 23.2715 0 23.6V35.4C0 35.7294 0.164209 36.0362 0.437545 36.2181L8.85 41.8264V52.1165C8.85 52.4616 9.03196 52.7822 9.32696 52.9602L19.1603 58.8602C19.3166 58.9537 19.4917 58.9999 19.6667 58.9999C19.8417 58.9999 20.0168 58.9537 20.1732 58.8602L29.5 53.264L38.827 58.8601C38.9833 58.9535 39.1584 58.9998 39.3334 58.9998C39.5085 58.9998 39.6835 58.9535 39.8399 58.8601L49.6732 52.9601C49.9682 52.7821 50.1501 52.4616 50.1501 52.1163V41.8261L58.5626 36.2179C58.8359 36.036 59.0001 35.7292 59.0001 35.3998V23.5998C59 23.2713 58.8358 22.9645 58.5625 22.7816ZM29.5 40.1532L22.3149 35.8421L20.65 34.8432V24.1573L20.6984 24.1282L29.5 18.8473L38.3016 24.1282L38.35 24.1573V34.8432L36.6851 35.8421L29.5 40.1532ZM39.3333 2.12963L48.1833 7.44067V17.1432L39.3333 22.4532L30.4833 17.1432V7.44067L39.3333 2.12963ZM10.8167 7.44067L19.6667 2.12963L28.5167 7.44067V17.1432L19.6667 22.4532L10.8167 17.1432V7.44067ZM1.96671 24.126L9.86049 18.8635L16.4369 22.8094L18.6834 24.1575V34.8432L10.1074 39.9887L9.86095 40.1366L1.96671 34.8738V24.126ZM19.6667 56.8699L10.8167 51.5599V41.8575L19.6668 36.5474L28.5167 41.8573V51.5598L19.6667 56.8699ZM39.3333 56.8699L30.4833 51.5599V41.8574L39.3333 36.5474L48.1833 41.8574V51.5599L39.3333 56.8699ZM57.0333 34.8737L49.139 40.1365L40.3736 34.8774L40.3166 34.8432V24.1573L49.139 18.864L57.0333 24.1267V34.8737Z" fill="#42CBF2"/>
</g>
<defs>
<clipPath id="clip0_35_632">
<rect width="59" height="59" fill="white"/>
</clipPath>
</defs>
</svg>
