<svg width="67" height="67" viewBox="0 0 67 67" fill="none" xmlns="http://www.w3.org/2000/svg">
<g clip-path="url(#clip0_30_343)">
<path d="M15.2732 37.7994C13.1327 37.4848 10.9775 37.2803 8.8161 37.1866C7.86833 37.128 6.61906 37.6221 6.4027 40.0118C6.36234 40.6127 6.42033 41.2162 6.57439 41.7984C6.71795 42.4064 7.04162 42.957 7.50308 43.3781C7.96453 43.7992 8.54231 44.0713 9.16087 44.1588L18.3999 45.4597C18.446 45.4673 18.4927 45.4711 18.5395 45.4709C18.7199 45.471 18.8974 45.4245 19.0546 45.3359C19.2118 45.2473 19.3434 45.1195 19.4367 44.965C19.5299 44.8105 19.5817 44.6345 19.5869 44.4541C19.5921 44.2737 19.5505 44.0951 19.4663 43.9355C16.4276 38.1553 15.6487 37.9152 15.2732 37.7994ZM9.4526 42.086C9.24964 42.0549 9.06067 41.9637 8.91012 41.8241C8.75957 41.6845 8.65437 41.503 8.60812 41.3029C8.51074 40.9444 8.47023 40.5727 8.48808 40.2016C8.49139 39.8839 8.56329 39.5706 8.69885 39.2831H8.72816C11.115 39.4325 13.7992 39.6489 14.5265 39.7773C15.3123 40.8289 16.0152 41.9401 16.6286 43.1008L9.4526 42.086Z" fill="#42CBF2"/>
<path d="M58.1825 37.1864C56.0211 37.2801 53.8659 37.4846 51.7254 37.7992C51.3499 37.915 50.5697 38.1551 47.5267 43.9409C47.4425 44.1005 47.401 44.2791 47.4062 44.4595C47.4114 44.6399 47.4631 44.8159 47.5564 44.9704C47.6497 45.1249 47.7813 45.2527 47.9385 45.3413C48.0957 45.4299 48.2731 45.4764 48.4536 45.4763C48.5003 45.4765 48.547 45.4727 48.5932 45.4651L57.8322 44.1642C58.4507 44.0767 59.0285 43.8046 59.49 43.3835C59.9514 42.9624 60.2751 42.4118 60.4187 41.8038C60.5723 41.2215 60.6302 40.6181 60.5904 40.0172C60.3782 37.6219 59.1219 37.1292 58.1825 37.1864ZM58.3905 41.3027C58.3443 41.5028 58.2391 41.6843 58.0885 41.8239C57.938 41.9635 57.749 42.0548 57.546 42.0858L50.3701 43.0964C50.9838 41.9362 51.6862 40.8251 52.4708 39.7729C53.2106 39.6431 55.8976 39.4267 58.283 39.2788C58.4352 39.5623 58.5135 39.8796 58.5106 40.2014C58.5285 40.5725 58.488 40.9442 58.3905 41.3027Z" fill="#42CBF2"/>
<path d="M47.9915 38.7736C47.886 38.6229 47.7429 38.5027 47.5763 38.4248C47.4097 38.3469 47.2256 38.3141 47.0423 38.3297C46.946 38.3381 37.3301 39.1672 33.5028 39.1672C29.6754 39.1672 20.0581 38.3297 19.9632 38.3297C19.7799 38.3136 19.5956 38.3461 19.4288 38.424C19.2621 38.5019 19.1189 38.6224 19.0137 38.7734C18.9085 38.9243 18.845 39.1004 18.8296 39.2837C18.8142 39.4671 18.8475 39.6513 18.9261 39.8177L21.6828 45.6676C21.7635 45.8376 21.8882 45.9829 22.0442 46.0882C22.2001 46.1935 22.3814 46.2551 22.5692 46.2664L33.4972 46.8918L44.4419 46.2664C44.6298 46.2554 44.8113 46.194 44.9672 46.0886C45.1232 45.9832 45.2479 45.8378 45.3283 45.6676L48.085 39.8177C48.163 39.6509 48.1954 39.4664 48.179 39.283C48.1626 39.0996 48.0979 38.9239 47.9915 38.7736ZM43.6951 44.2173L33.5 44.8064L23.3104 44.2173L21.5921 40.5714C24.6057 40.8171 30.5799 41.2693 33.5042 41.2693C36.4284 41.2693 42.404 40.8171 45.419 40.5714L43.6951 44.2173Z" fill="#42CBF2"/>
<path d="M39.5174 6.97091L41.0612 7.54879C41.566 7.73749 42.0244 8.03225 42.4056 8.41318C42.7868 8.79411 43.0818 9.25235 43.2708 9.757L43.8487 11.3064C43.9241 11.5044 44.0579 11.6749 44.2324 11.7952C44.4069 11.9155 44.6138 11.9799 44.8258 11.9799C45.0377 11.9799 45.2447 11.9155 45.4191 11.7952C45.5936 11.6749 45.7275 11.5044 45.8029 11.3064L46.3807 9.76258C46.57 9.2583 46.865 8.80035 47.2458 8.41948C47.6267 8.03861 48.0847 7.74364 48.5889 7.55437L50.1327 6.9765C50.3308 6.9011 50.5013 6.76728 50.6216 6.59278C50.7419 6.41829 50.8063 6.21135 50.8063 5.99941C50.8063 5.78747 50.7419 5.58054 50.6216 5.40604C50.5013 5.23155 50.3308 5.09773 50.1327 5.02233L48.5889 4.44446C48.0843 4.25544 47.6261 3.96039 47.2451 3.57922C46.8642 3.19805 46.5694 2.73962 46.3807 2.23485L45.8084 0.679893C45.733 0.481819 45.5992 0.311337 45.4247 0.191049C45.2502 0.0707613 45.0433 0.00634766 44.8314 0.00634766C44.6194 0.00634766 44.4125 0.0707613 44.238 0.191049C44.0635 0.311337 43.9297 0.481819 43.8543 0.679893L43.2708 2.22368C43.0821 2.72845 42.7874 3.18688 42.4064 3.56805C42.0255 3.94922 41.5673 4.24427 41.0626 4.43329L39.5188 5.01116C39.3207 5.08656 39.1503 5.22038 39.03 5.39488C38.9097 5.56937 38.8453 5.77631 38.8453 5.98825C38.8453 6.20019 38.9097 6.40712 39.03 6.58162C39.1503 6.75611 39.3207 6.88993 39.5188 6.96533L39.5174 6.97091ZM44.8286 3.81493C45.3464 4.7213 46.0972 5.47264 47.0033 5.99104C46.097 6.50906 45.346 7.26049 44.8286 8.16714C44.3099 7.26093 43.5587 6.50968 42.6525 5.99104C43.5587 5.4724 44.3099 4.72115 44.8286 3.81493Z" fill="#42CBF2"/>
<path d="M51.2871 13.4685L52.4568 13.9067C52.8054 14.0376 53.1219 14.2416 53.3851 14.505C53.6483 14.7684 53.852 15.0851 53.9825 15.4338L54.4208 16.6035C54.4955 16.8033 54.6294 16.9755 54.8046 17.097C54.9799 17.2186 55.1881 17.2837 55.4013 17.2837C55.6146 17.2837 55.8228 17.2186 55.9981 17.097C56.1733 16.9755 56.3072 16.8033 56.3819 16.6035L56.8188 15.4338C56.9496 15.085 57.1535 14.7682 57.4169 14.5048C57.6803 14.2414 57.9971 14.0375 58.3459 13.9067L59.5156 13.4685C59.7131 13.3925 59.8829 13.2585 60.0027 13.084C60.1225 12.9096 60.1866 12.703 60.1866 12.4914C60.1866 12.2798 60.1225 12.0731 60.0027 11.8987C59.8829 11.7243 59.7131 11.5903 59.5156 11.5143L58.3459 11.0704C57.9973 10.9406 57.6808 10.7373 57.4178 10.4743C57.1548 10.2112 56.9514 9.89472 56.8216 9.54616L56.3819 8.37506C56.3072 8.17529 56.1733 8.0031 55.9981 7.88153C55.8228 7.75997 55.6146 7.69482 55.4013 7.69482C55.1881 7.69482 54.9799 7.75997 54.8046 7.88153C54.6294 8.0031 54.4955 8.17529 54.4208 8.37506L53.9825 9.54616C53.8519 9.8947 53.6482 10.2112 53.3851 10.4744C53.1219 10.7376 52.8054 10.9413 52.4568 11.0718L51.2857 11.5101C51.0877 11.5855 50.9172 11.7193 50.7969 11.8938C50.6766 12.0683 50.6122 12.2752 50.6122 12.4872C50.6122 12.6991 50.6766 12.9061 50.7969 13.0806C50.9172 13.2551 51.0877 13.3889 51.2857 13.4643L51.2871 13.4685ZM55.4006 11.3063C55.7192 11.7659 56.1178 12.1644 56.5773 12.483C56.1188 12.8022 55.7204 13.2001 55.4006 13.6583C55.0818 13.1999 54.6838 12.8019 54.2254 12.483C54.6845 12.1644 55.0826 11.7658 55.4006 11.3063Z" fill="#42CBF2"/>
<path d="M57.8266 6.97055L58.9963 7.40884C59.3447 7.53922 59.6611 7.74272 59.9243 8.00565C60.1874 8.26857 60.3912 8.58481 60.5219 8.93309L60.9602 10.1028C61.0349 10.3026 61.1688 10.4748 61.3441 10.5963C61.5193 10.7179 61.7275 10.783 61.9408 10.783C62.1541 10.783 62.3622 10.7179 62.5375 10.5963C62.7127 10.4748 62.8467 10.3026 62.9213 10.1028L63.3596 8.93309C63.4899 8.5846 63.6933 8.26809 63.9563 8.0049C64.2192 7.74172 64.5355 7.53799 64.8839 7.40744L66.055 6.96915C66.2531 6.89375 66.4236 6.75994 66.5438 6.58544C66.6641 6.41094 66.7285 6.20401 66.7285 5.99207C66.7285 5.78013 66.6641 5.57319 66.5438 5.3987C66.4236 5.2242 66.2531 5.09038 66.055 5.01498L64.8853 4.5753C64.537 4.44499 64.2207 4.24149 63.9578 3.97855C63.6948 3.71561 63.4914 3.39933 63.361 3.05105L62.9227 1.87994C62.848 1.68017 62.7141 1.50798 62.5389 1.38642C62.3636 1.26485 62.1555 1.19971 61.9422 1.19971C61.7289 1.19971 61.5207 1.26485 61.3455 1.38642C61.1702 1.50798 61.0363 1.68017 60.9616 1.87994L60.5233 3.05105C60.3928 3.39942 60.189 3.71574 59.9258 3.97869C59.6627 4.24163 59.3462 4.44507 58.9977 4.5753L57.8266 5.01498C57.6285 5.09038 57.458 5.2242 57.3377 5.3987C57.2174 5.57319 57.153 5.78013 57.153 5.99207C57.153 6.20401 57.2174 6.41094 57.3377 6.58544C57.458 6.75994 57.6285 6.89375 57.8266 6.96915V6.97055ZM61.9401 4.81538C62.2597 5.27323 62.6575 5.6711 63.1154 5.99067C62.6575 6.31025 62.2597 6.70811 61.9401 7.16596C61.6212 6.70752 61.2232 6.30955 60.7648 5.99067C61.2229 5.67143 61.6208 5.27352 61.9401 4.81538Z" fill="#42CBF2"/>
<path d="M63.9445 59.1431C63.6669 59.1431 63.4006 59.2534 63.2043 59.4497C63.0079 59.646 62.8976 59.9123 62.8976 60.19V64.5366C62.8976 64.6347 62.8587 64.7288 62.7893 64.7981C62.7199 64.8675 62.6258 64.9065 62.5277 64.9065H57.0896C56.9915 64.9065 56.8974 64.8675 56.828 64.7981C56.7586 64.7288 56.7197 64.6347 56.7197 64.5366V62.7443C56.7197 62.4667 56.6094 62.2004 56.413 62.0041C56.2167 61.8078 55.9504 61.6975 55.6728 61.6975C55.3951 61.6975 55.1289 61.8078 54.9325 62.0041C54.7362 62.2004 54.6259 62.4667 54.6259 62.7443V64.5366C54.6267 65.1898 54.8865 65.816 55.3483 66.2778C55.8102 66.7397 56.4364 66.9995 57.0896 67.0002H62.5333C63.1865 66.9995 63.8127 66.7397 64.2746 66.2778C64.7364 65.816 64.9962 65.1898 64.997 64.5366V60.19C64.997 60.052 64.9697 59.9154 64.9167 59.788C64.8638 59.6607 64.7862 59.545 64.6884 59.4477C64.5906 59.3504 64.4745 59.2734 64.3468 59.2212C64.2192 59.1689 64.0825 59.1423 63.9445 59.1431Z" fill="#42CBF2"/>
<path d="M11.2532 61.696C10.9756 61.696 10.7093 61.8063 10.5129 62.0027C10.3166 62.199 10.2063 62.4653 10.2063 62.7429V64.5352C10.2063 64.633 10.1675 64.7269 10.0985 64.7962C10.0294 64.8656 9.93568 64.9047 9.83782 64.9051H4.39407C4.29621 64.9047 4.20249 64.8656 4.13342 64.7962C4.06435 64.7269 4.02557 64.633 4.02557 64.5352V60.1899C4.02557 59.9123 3.91528 59.646 3.71895 59.4497C3.52262 59.2534 3.25635 59.1431 2.9787 59.1431C2.70105 59.1431 2.43477 59.2534 2.23845 59.4497C2.04212 59.646 1.93182 59.9123 1.93182 60.1899V64.5366C1.93219 65.1891 2.1913 65.8149 2.65234 66.2767C3.11337 66.7386 3.73872 66.9987 4.39128 67.0002H9.83503C10.4881 66.9995 11.1141 66.7396 11.5758 66.2777C12.0374 65.8158 12.2969 65.1896 12.2973 64.5366V62.7443C12.2977 62.4669 12.1879 62.2007 11.9921 62.0042C11.7964 61.8076 11.5306 61.6968 11.2532 61.696Z" fill="#42CBF2"/>
<path d="M64.8071 26.3183L61.3176 25.7153C60.8077 25.6213 60.281 25.7037 59.8243 25.9491C59.3676 26.1944 59.0081 26.5881 58.8051 27.0651L58.6166 27.4839L56.1432 21.6493C55.5841 20.3115 54.6917 19.1391 53.5512 18.2438C52.4106 17.3486 51.0598 16.7603 49.6275 16.5349C44.2903 15.7247 38.8983 15.3299 33.5 15.3541C28.1017 15.3304 22.7097 15.7256 17.3725 16.5363C15.9403 16.7615 14.5897 17.3496 13.4491 18.2446C12.3085 19.1396 11.4161 20.3117 10.8568 21.6493L8.375 27.4894L8.19912 27.0791C7.99767 26.6 7.63909 26.2038 7.18242 25.9556C6.72575 25.7075 6.1982 25.6223 5.68662 25.714L2.19704 26.3183C1.63074 26.4123 1.11617 26.7042 0.744994 27.142C0.373823 27.5799 0.17016 28.1354 0.170288 28.7094V29.3948C0.170811 29.9473 0.359315 30.4833 0.704816 30.9145C1.05032 31.3458 1.53226 31.6466 2.07141 31.7677L5.38512 32.5158L3.9167 34.7562C2.64435 36.6919 1.96737 38.9582 1.96952 41.2747V53.1812C1.96952 57.6743 5.09898 60.5791 9.94531 60.5791H57.0547C61.901 60.5791 65.0305 57.6757 65.0305 53.1812V41.2691C65.0326 38.9526 64.3556 36.6863 63.0833 34.7506L61.6149 32.5172L64.9174 31.7719C65.4581 31.6523 65.942 31.3521 66.2894 30.9208C66.6367 30.4895 66.8268 29.9527 66.8283 29.3989V28.7136C66.8299 28.1396 66.6276 27.5836 66.2574 27.1449C65.8872 26.7062 65.3733 26.4133 64.8071 26.3183ZM2.52227 29.7186C2.44879 29.7021 2.38315 29.661 2.3362 29.6021C2.28925 29.5432 2.26379 29.4701 2.26404 29.3948V28.7094C2.2629 28.6303 2.29062 28.5535 2.342 28.4934C2.39339 28.4333 2.46492 28.394 2.5432 28.3828L6.04814 27.777C6.09731 27.7681 6.14801 27.7774 6.19087 27.8031C6.23373 27.8287 6.26584 27.8691 6.28125 27.9166L7.13689 29.8512L6.61485 30.6468L2.52227 29.7186ZM62.9367 49.9289H6.71675C6.4391 49.9289 6.17282 50.0392 5.97649 50.2355C5.78017 50.4318 5.66987 50.6981 5.66987 50.9757C5.66987 51.2534 5.78017 51.5197 5.97649 51.716C6.17282 51.9123 6.4391 52.0226 6.71675 52.0226H62.9367V53.1812C62.9367 56.5004 60.7383 58.4853 57.0547 58.4853H9.94531C6.26171 58.4853 4.06327 56.5018 4.06327 53.1812V41.2691C4.0618 39.3605 4.61936 37.4933 5.66708 35.8979L8.96683 30.8646H54.6399C54.9175 30.8646 55.1838 30.7543 55.3801 30.558C55.5765 30.3616 55.6868 30.0953 55.6868 29.8177C55.6868 29.54 55.5765 29.2738 55.3801 29.0774C55.1838 28.8811 54.9175 28.7708 54.6399 28.7708H10.11L12.7844 22.4728C13.2054 21.4623 13.8783 20.5766 14.7389 19.9002C15.5996 19.2238 16.6192 18.7793 17.7006 18.6092C22.9289 17.8127 28.2114 17.4245 33.5 17.4478C38.7885 17.4231 44.0709 17.81 49.2994 18.605C50.3812 18.7755 51.4012 19.2207 52.2619 19.8978C53.1226 20.575 53.7952 21.4616 54.2156 22.4728L57.2752 29.6851C57.299 29.7428 57.3284 29.798 57.3632 29.8498L61.3329 35.9035C62.3806 37.4989 62.9382 39.3661 62.9367 41.2747V49.9289ZM64.7346 29.3948C64.7345 29.4716 64.708 29.546 64.6594 29.6055C64.6108 29.665 64.5432 29.706 64.468 29.7214L60.3893 30.6426L59.8673 29.847L60.7285 27.8928C60.7479 27.8505 60.7807 27.8158 60.8218 27.7941C60.863 27.7724 60.9102 27.7649 60.956 27.7728L64.454 28.3786C64.5323 28.3898 64.6038 28.4291 64.6552 28.4892C64.7066 28.5494 64.7343 28.6261 64.7332 28.7052L64.7346 29.3948Z" fill="#42CBF2"/>
</g>
<defs>
<clipPath id="clip0_30_343">
<rect width="67" height="67" fill="white"/>
</clipPath>
</defs>
</svg>
