<svg width="73" height="73" viewBox="0 0 73 73" fill="none" xmlns="http://www.w3.org/2000/svg">
<path d="M28.5156 41.8838C24.3481 41.8838 20.9576 45.2743 20.9576 49.4418C20.9576 53.6094 24.3481 56.9999 28.5156 56.9999C32.6832 56.9999 36.0737 53.6094 36.0737 49.4418C36.0737 45.2743 32.6832 41.8838 28.5156 41.8838ZM28.5156 55.289C25.2919 55.289 22.6685 52.6655 22.6685 49.4418C22.6685 46.2181 25.2919 43.5947 28.5156 43.5947C31.7393 43.5947 34.3628 46.2181 34.3628 49.4418C34.3628 52.6655 31.7393 55.289 28.5156 55.289ZM41.7312 46.2723H41.2407C40.3824 46.2723 39.6766 45.799 39.3516 45.0048L39.3159 44.9192C38.9837 44.1279 39.1477 43.2924 39.7551 42.6865L40.1015 42.34C40.3796 42.062 40.5335 41.6913 40.5335 41.2963C40.5335 40.9014 40.381 40.5307 40.1015 40.2527L37.7062 37.8559C37.1302 37.2799 36.1949 37.2799 35.6189 37.8559L35.271 38.2038C34.6636 38.8112 33.8295 38.9752 33.0382 38.643L32.9527 38.6073C32.1599 38.2822 31.6851 37.5765 31.6851 36.7182V36.2263C31.6851 35.4121 31.0236 34.7506 30.2095 34.7506H26.8204C26.0063 34.7506 25.3447 35.4121 25.3447 36.2263V36.7167C25.3447 37.5608 24.8856 38.258 24.1142 38.5888V27.5261H29.7204C30.1923 27.5261 30.5759 27.1426 30.5759 26.6707V14.3291C30.5759 13.8572 30.1923 13.4736 29.7204 13.4736H2.99414C2.52221 13.4736 2.13867 13.8572 2.13867 14.3291V26.6721C2.13867 27.144 2.52221 27.5276 2.99414 27.5276H8.60031V59.2013C8.60031 59.6732 8.98385 60.0568 9.45578 60.0568H18.3541L19.325 61.0277C19.6031 61.3058 19.9738 61.4597 20.3687 61.4597C20.7637 61.4597 21.1344 61.3058 21.4124 61.0277L21.7603 60.6798C22.3677 60.0725 23.2017 59.9085 23.9945 60.2407L24.0786 60.2749C24.8713 60.6 25.3461 61.3072 25.3461 62.1641V62.656C25.3461 63.4701 26.0077 64.1317 26.8218 64.1317H30.2109C31.025 64.1317 31.6866 63.4701 31.6866 62.656V62.1641C31.6866 61.3058 32.1599 60.6 32.9527 60.2749L33.0382 60.2393C33.8295 59.9071 34.665 60.071 35.271 60.6784L35.6189 61.0263C35.8969 61.3043 36.2676 61.4583 36.6625 61.4583C37.0575 61.4583 37.4282 61.3043 37.7062 61.0263L40.1015 58.631C40.3796 58.353 40.5335 57.9823 40.5335 57.5873C40.5335 57.1924 40.381 56.8217 40.1015 56.5436L39.7551 56.1972C39.1477 55.5898 38.9837 54.7557 39.3159 53.9644L39.3516 53.8789C39.6766 53.0861 40.3838 52.6113 41.2407 52.6113H41.7312C42.5453 52.6113 43.2069 51.9498 43.2069 51.1357V47.7466C43.2069 46.9339 42.5453 46.2723 41.7312 46.2723ZM17.2762 56.1986L17.2092 56.2656L10.3112 54.4178V51.0145L14.1352 52.0396C14.4061 52.3875 14.8267 52.6142 15.3015 52.6142H15.792C16.6488 52.6142 17.356 53.0876 17.6811 53.8817L17.7168 53.9658C18.0475 54.7557 17.8836 55.5912 17.2762 56.1986ZM22.4047 36.9634L10.3112 33.7226V30.3207L22.4047 33.5615V36.9634ZM13.8244 47.748V50.1847L10.3112 49.2436V45.8417L14.1224 46.8626C13.937 47.1093 13.8244 47.4158 13.8244 47.748ZM17.0281 45.8688L10.3127 44.0695V40.6676L17.0695 42.4783L17.2776 42.6865C17.885 43.2939 18.049 44.1279 17.7168 44.9207L17.6825 45.0048C17.5343 45.3627 17.309 45.655 17.0281 45.8688ZM16.9297 40.2512C16.8256 40.3553 16.7387 40.4722 16.6717 40.5991L10.3127 38.8953V35.4934L19.2851 37.8973L16.9297 40.2512ZM11.6515 25.8166V15.1846H21.0659V25.8166H11.6515ZM28.8664 25.8166H22.7754V15.1846H28.8664V25.8166ZM3.84961 15.1846H9.94055V25.8166H3.84961V15.1846ZM22.4047 27.5276V31.7892L10.3112 28.5484V27.5276H22.4047ZM10.3112 56.1872L16.522 57.8511C16.5533 58.0265 16.6161 58.1947 16.7087 58.3458H10.3112V56.1872ZM41.4959 50.9018H41.2393C39.6866 50.9018 38.3564 51.7944 37.7675 53.2301L37.7376 53.3028C37.1373 54.7358 37.4467 56.3084 38.5446 57.4077L38.7256 57.5887L36.6611 59.6533L36.48 59.4722C35.3808 58.3729 33.8081 58.0635 32.3752 58.6652L32.3039 58.6952C30.8667 59.284 29.9756 60.6143 29.9756 62.1669V62.4236H27.0571V62.1669C27.0571 60.6143 26.1645 59.284 24.7273 58.6937L24.656 58.6638C23.2231 58.0635 21.6505 58.3715 20.5512 59.4708L20.3701 59.6519L18.3056 57.5873L18.4867 57.4062C19.586 56.307 19.8954 54.7343 19.2937 53.3014L19.2637 53.2301C18.6749 51.7929 17.3446 50.9018 15.792 50.9018H15.5353V47.9833H15.792C17.3446 47.9833 18.6749 47.0907 19.2652 45.6535L19.2951 45.5822C19.8954 44.1493 19.5874 42.5767 18.4881 41.4774L18.307 41.2963L20.3716 39.2318L20.5526 39.4129C21.6519 40.5122 23.2246 40.8216 24.6575 40.2199L24.7302 40.1899C26.1674 39.6011 27.0599 38.2708 27.0599 36.7182V36.4615H29.9785V36.7182C29.9785 38.2708 30.871 39.6011 32.3082 40.1899L32.3795 40.2199C33.8124 40.8201 35.385 40.5107 36.4843 39.4129L36.6654 39.2318L38.7299 41.2963L38.5488 41.4774C37.4496 42.5767 37.1402 44.1493 37.7419 45.5808L37.7718 45.655C38.3606 47.0921 39.6909 47.9833 41.2436 47.9833H41.5002V50.9018H41.4959ZM58.5226 26.2971C52.5415 26.2971 46.1839 28.115 46.1839 31.4855V58.9461C46.1839 62.3166 52.5415 64.1345 58.5226 64.1345C64.5038 64.1345 70.8613 62.3152 70.8613 58.9447V31.4841C70.8613 28.115 64.5038 26.2971 58.5226 26.2971ZM58.5226 28.0081C65.1069 28.0081 69.1504 30.0341 69.1504 31.4855C69.1504 32.937 65.1069 34.963 58.5226 34.963C51.9384 34.963 47.8948 32.937 47.8948 31.4855C47.8948 30.0341 51.9369 28.0081 58.5226 28.0081ZM47.8934 38.5517C48.4965 38.9752 49.2365 39.3459 50.072 39.661V56.6206C48.6605 55.9847 47.8934 55.2433 47.8934 54.6117V38.5517ZM63.1022 57.7256V40.649C63.8493 40.5293 64.5751 40.3796 65.2609 40.2013V57.2394C64.6136 57.4276 63.8921 57.5916 63.1022 57.7256ZM61.3913 57.9537C60.7397 58.0179 60.0511 58.0593 59.3296 58.0778V40.9955C60.0197 40.977 60.7098 40.9342 61.3913 40.8686V57.9537ZM57.6187 58.0749C56.8972 58.0536 56.2086 58.0093 55.557 57.9438V40.8586C56.2385 40.9271 56.9286 40.9713 57.6187 40.9927V58.0749ZM53.8461 57.7085C53.0947 57.5773 52.4046 57.4191 51.7844 57.2394V40.2013C52.4417 40.3724 53.1332 40.5164 53.8461 40.6348V57.7085ZM58.5226 62.4221C51.9384 62.4221 47.8948 60.3961 47.8948 58.9447V57.3464C50.1875 58.9546 54.442 59.8001 58.5226 59.8001C62.6032 59.8001 66.8577 58.9532 69.1504 57.3464V58.9447C69.1504 60.3975 65.1069 62.4221 58.5226 62.4221ZM66.9718 56.6221V39.6624C67.8087 39.3459 68.5473 38.9752 69.1504 38.5531V54.6131C69.1504 55.2448 68.3819 55.9862 66.9718 56.6221ZM58.5226 39.296C51.9384 39.296 47.8948 37.2699 47.8948 35.8185V34.2188C50.1875 35.827 54.442 36.6725 58.5226 36.6725C62.6032 36.6725 66.8577 35.827 69.1504 34.2188V35.8171C69.1504 37.2699 65.1069 39.296 58.5226 39.296ZM58.5226 33.8195C60.8224 33.8195 63.2976 33.0895 63.2976 31.4855C63.2976 29.8815 60.8224 29.1515 58.5226 29.1515C56.2228 29.1515 53.7477 29.8815 53.7477 31.4855C53.7477 33.0895 56.2228 33.8195 58.5226 33.8195ZM58.5226 30.861C60.1109 30.861 61.1361 31.2389 61.4897 31.4841C61.1361 31.7293 60.1109 32.1072 58.5226 32.1072C56.9343 32.1072 55.9092 31.7293 55.5556 31.4841C55.9092 31.2389 56.9329 30.861 58.5226 30.861ZM46.9096 22.2493C46.9096 22.7213 47.2932 23.1048 47.7651 23.1048H50.8576C51.3296 23.1048 51.7131 22.7213 51.7131 22.2493V19.7015H58.0236C59.006 19.7015 59.8215 18.98 59.9755 18.0404H62.9297C63.4016 18.0404 63.7852 17.6569 63.7852 17.185V14.7854C63.7852 14.3134 63.4016 13.9299 62.9297 13.9299H59.9755C59.8229 12.9903 59.0074 12.2689 58.0236 12.2689H51.7131V9.72241C51.7131 9.25048 51.3296 8.86694 50.8576 8.86694H47.7651C47.2932 8.86694 46.9096 9.25048 46.9096 9.72241V10.4082H44.6726C44.2006 10.4082 43.8171 10.7917 43.8171 11.2637V11.6372H41.3762H38.1254H36.202C34.973 11.6372 33.9749 12.6367 33.9749 13.8643V18.1046C33.9749 19.3336 34.9744 20.3317 36.202 20.3317H38.1254H41.3762H43.8171V20.7052C43.8171 21.1771 44.2006 21.5607 44.6726 21.5607H46.9096V22.2493ZM62.0728 16.3295H60.0026V15.6408H62.0728V16.3295ZM58.0222 13.9798C58.1676 13.9798 58.2902 14.1024 58.2902 14.2478V17.721C58.2902 17.8665 58.1676 17.9891 58.0222 17.9891H51.7131V13.9798H58.0222ZM48.6206 10.5779H50.0022V21.3939H48.6206V10.5779ZM35.6859 18.1046V13.8657C35.6859 13.5863 35.9226 13.3496 36.202 13.3496H37.2699V18.6236H36.202C35.9226 18.6221 35.6859 18.3855 35.6859 18.1046ZM38.9809 18.6221V13.3482H40.5207V18.6221H38.9809ZM42.2331 18.6221V13.3482H43.8185V18.6221H42.2331ZM45.528 19.8512V12.1192H46.9096V19.8497H45.528V19.8512Z" fill="#42CBF2"/>
</svg>
