<svg width="67" height="67" viewBox="0 0 67 67" fill="none" xmlns="http://www.w3.org/2000/svg">
<path d="M30.8828 24.1828C32.7148 22.3508 30.8828 20.4664 30.8828 20.4664C30.8828 20.4664 18.6867 8.27029 16.8023 6.43826C14.9179 4.60623 13.0859 6.43826 13.0859 6.43826L2.7742 16.8023C2.7742 16.8023 0.942166 18.6344 2.7742 20.5187C4.60623 22.4031 16.8023 34.5469 16.8023 34.5469C16.8023 34.5469 18.6344 36.3789 20.5187 34.5469L30.8828 24.1828Z" stroke="#42CBF2" stroke-width="2.09375" stroke-miterlimit="10" stroke-linecap="square" stroke-linejoin="round"/>
<path d="M3.87347 21.6181L17.9539 7.5376" stroke="#42CBF2" stroke-width="2.09375" stroke-miterlimit="10" stroke-linecap="square" stroke-linejoin="round"/>
<path d="M6.80469 24.5492L20.8852 10.4688" stroke="#42CBF2" stroke-width="2.09375" stroke-miterlimit="10" stroke-linecap="square" stroke-linejoin="round"/>
<path d="M22.7445 26.4032C24.3796 24.7681 24.3796 22.1171 22.7445 20.4821C21.1094 18.847 18.4584 18.847 16.8234 20.4821C15.1883 22.1171 15.1883 24.7681 16.8234 26.4032C18.4584 28.0383 21.1094 28.0383 22.7445 26.4032Z" stroke="#42CBF2" stroke-width="2.09343" stroke-miterlimit="10" stroke-linecap="square" stroke-linejoin="round"/>
<path d="M51.2244 54.9028C53.6771 52.4501 53.6771 48.4737 51.2244 46.0211C48.7718 43.5685 44.7954 43.5685 42.3428 46.0211C39.8901 48.4737 39.8901 52.4501 42.3428 54.9028C44.7954 57.3554 48.7718 57.3554 51.2244 54.9028Z" stroke="#42CBF2" stroke-width="2.09343" stroke-miterlimit="10" stroke-linecap="square" stroke-linejoin="round"/>
<path d="M50.25 61.0329L57.3688 53.9141C56.8453 51.9774 57.2641 49.8313 58.625 48.261L48.9938 38.5774C47.3711 39.9383 45.2774 40.3571 43.3406 39.8336L36.2219 47.0047C36.7453 48.9415 36.3266 51.0875 34.9656 52.6579L44.6492 62.3415C46.2195 60.9805 48.3133 60.5618 50.25 61.0329Z" stroke="#42CBF2" stroke-width="2.09375" stroke-miterlimit="10" stroke-linecap="square" stroke-linejoin="round"/>
<path d="M40.1476 57.1071L42.3461 54.9087" stroke="#42CBF2" stroke-width="2.09375" stroke-miterlimit="10" stroke-linecap="square" stroke-linejoin="round"/>
<path d="M51.2446 46.0102L53.443 43.8118" stroke="#42CBF2" stroke-width="2.09375" stroke-miterlimit="10" stroke-linecap="square" stroke-linejoin="round"/>
<path d="M23.8687 31.197L37.8968 45.2775" stroke="#42CBF2" stroke-width="2.09375" stroke-miterlimit="10" stroke-linecap="square" stroke-linejoin="round"/>
<path d="M27.5328 27.533L41.6132 41.5611" stroke="#42CBF2" stroke-width="2.09375" stroke-miterlimit="10" stroke-linecap="square" stroke-linejoin="round"/>
<path d="M46.4813 34.547C48.3133 36.379 50.1977 34.547 50.1977 34.547C50.1977 34.547 62.3938 22.3509 64.2782 20.4665C66.1102 18.6345 64.2782 16.7501 64.2782 16.7501L53.9141 6.38601C53.9141 6.38601 52.0821 4.55398 50.1977 6.38601C48.3133 8.27039 36.1172 20.4665 36.1172 20.4665C36.1172 20.4665 34.2852 22.2985 36.1172 24.1829L46.4813 34.547Z" stroke="#42CBF2" stroke-width="2.09375" stroke-miterlimit="10" stroke-linecap="square" stroke-linejoin="round"/>
<path d="M49.0461 7.5376L63.1266 21.6181" stroke="#42CBF2" stroke-width="2.09375" stroke-miterlimit="10" stroke-linecap="square" stroke-linejoin="round"/>
<path d="M46.1148 10.4688L60.1953 24.5492" stroke="#42CBF2" stroke-width="2.09375" stroke-miterlimit="10" stroke-linecap="square" stroke-linejoin="round"/>
<path d="M50.1741 26.4159C51.8092 24.7808 51.8092 22.1298 50.1741 20.4948C48.539 18.8597 45.8881 18.8597 44.253 20.4948C42.6179 22.1298 42.6179 24.7808 44.253 26.4159C45.8881 28.051 48.539 28.051 50.1741 26.4159Z" stroke="#42CBF2" stroke-width="2.09343" stroke-miterlimit="10" stroke-linecap="square" stroke-linejoin="round"/>
<path d="M24.635 54.8959C27.0876 52.4433 27.0876 48.4668 24.635 46.0142C22.1824 43.5616 18.206 43.5616 15.7533 46.0142C13.3007 48.4668 13.3007 52.4433 15.7533 54.8959C18.206 57.3485 22.1824 57.3485 24.635 54.8959Z" stroke="#42CBF2" stroke-width="2.09343" stroke-miterlimit="10" stroke-linecap="square" stroke-linejoin="round"/>
<path d="M9.63129 53.914L16.75 61.0328C18.6868 60.5093 20.8328 60.9281 22.4032 62.289L32.0868 52.6054C30.7258 50.9828 30.3071 48.889 30.8305 46.9523L23.6594 39.8859C21.7227 40.4093 19.5766 39.9906 18.0063 38.6296L8.32269 48.2609C9.68363 49.8835 10.1024 51.9773 9.63129 53.914Z" stroke="#42CBF2" stroke-width="2.09375" stroke-miterlimit="10" stroke-linecap="square" stroke-linejoin="round"/>
<path d="M13.5571 43.8118L15.7555 46.0102" stroke="#42CBF2" stroke-width="2.09375" stroke-miterlimit="10" stroke-linecap="square" stroke-linejoin="round"/>
<path d="M24.6539 54.9087L26.8523 57.1071" stroke="#42CBF2" stroke-width="2.09375" stroke-miterlimit="10" stroke-linecap="square" stroke-linejoin="round"/>
<path d="M29.7836 37.1641L25.3867 41.5609" stroke="#42CBF2" stroke-width="2.09375" stroke-miterlimit="10" stroke-linecap="square" stroke-linejoin="round"/>
<path d="M39.4672 27.533L33.6047 33.3431" stroke="#42CBF2" stroke-width="2.09375" stroke-miterlimit="10" stroke-linecap="square" stroke-linejoin="round"/>
<path d="M33.5 40.8806L29.1031 45.2775" stroke="#42CBF2" stroke-width="2.09375" stroke-miterlimit="10" stroke-linecap="square" stroke-linejoin="round"/>
<path d="M43.1313 31.197L37.3211 37.0595" stroke="#42CBF2" stroke-width="2.09375" stroke-miterlimit="10" stroke-linecap="square" stroke-linejoin="round"/>
</svg>
