<svg width="93" height="30" viewBox="0 0 93 30" fill="none" xmlns="http://www.w3.org/2000/svg">
<path d="M74.5751 18.3147C72.8621 18.3147 71.4684 19.7089 71.4684 21.4221C71.4684 23.1393 72.8621 24.5366 74.5751 24.5366C76.2923 24.5366 77.6896 23.1395 77.6896 21.4221C77.6894 19.7089 76.2923 18.3147 74.5751 18.3147ZM74.5751 22.7223C73.8623 22.7223 73.2824 22.1388 73.2824 21.4219C73.2824 20.7086 73.8623 20.1287 74.5751 20.1287C75.292 20.1287 75.8755 20.7086 75.8755 21.4219C75.8755 22.1388 75.292 22.7223 74.5751 22.7223Z" fill="#42CBF2"/>
<path d="M52.2137 29.0711C52.2137 29.5718 52.62 29.9781 53.1207 29.9781H74.5757C78.1525 29.9781 81.2194 27.7702 82.4961 24.6474H88.4938C93.6153 24.6474 93.8248 17.4102 89.1193 14.5784C82.2478 10.4415 72.7591 9.00918 64.754 8.34375L56.7314 3.79661C47.6986 -1.32414 40.0057 0.339524 35.8617 0.010789H34.5224C27.3243 0.010789 23.5357 2.80541 15.9553 5.52025L11.6246 0.336194C11.452 0.13018 11.197 0.010789 10.9284 0.010789H0.907163C0.495503 0.010789 0.135301 0.288254 0.0301653 0.686401C-0.0749708 1.08455 0.101058 1.50361 0.459409 1.70685L8.38589 6.20678C5.97165 7.20798 4.26837 9.58761 4.26837 12.3595V20.6221C4.26837 22.8418 6.07419 24.6476 8.29389 24.6476H11.786C12.3557 26.0425 13.2842 27.2501 14.4545 28.1641H5.17535C4.67466 28.1641 4.26837 28.5704 4.26837 29.0711C4.26837 29.5718 4.67466 29.9781 5.17535 29.9781H19.6999C23.2767 29.9781 26.3436 27.7702 27.6202 24.6474H66.6618C67.2315 26.0423 68.16 27.2499 69.3304 28.1639H53.1205C52.6198 28.1641 52.2137 28.5704 52.2137 29.0711ZM55.837 5.37458L61.1453 8.38391H43.2011C39.6544 8.38391 36.7685 5.49804 36.7685 1.95136V1.82494C40.2242 2.10833 47.4278 0.60866 55.837 5.37458ZM10.5043 1.82494L13.741 5.69998H11.1681L4.34222 1.82494H10.5043ZM19.6999 28.1641C15.986 28.1641 12.9643 25.1394 12.9643 21.4215C12.9643 17.7077 15.986 14.6865 19.6999 14.6865C23.4178 14.6865 26.4424 17.7077 26.4424 21.4215C26.4426 25.1394 23.4179 28.1641 19.6999 28.1641ZM28.13 22.8335C28.207 22.3731 28.2566 21.9035 28.2566 21.4215C28.2566 16.7074 24.4182 12.8726 19.6999 12.8726C14.9858 12.8726 11.1502 16.7074 11.1502 21.4215C11.1502 21.9035 11.1998 22.3731 11.2768 22.8335H8.29389C7.07446 22.8335 6.08234 21.8413 6.08234 20.6219V12.3593C6.08234 9.68775 8.25613 7.51395 10.9282 7.51395C15.8557 7.49026 15.7251 7.56615 16.0179 7.44898L25.9445 3.47713C30.6712 1.58542 34.6338 1.85326 34.9542 1.82476V1.95118C34.9542 6.49813 38.6538 10.1979 43.2009 10.1979H65.1083C75.6296 11.1113 82.981 13.0003 88.1834 16.1327C91.2982 18.0077 91.6392 22.8335 88.4934 22.8335H83.0054C83.0824 22.3731 83.1321 21.9035 83.1321 21.4215C83.1321 16.7074 79.2937 12.8726 74.5753 12.8726C69.8612 12.8726 66.0256 16.7074 66.0256 21.4215C66.0256 21.9035 66.0752 22.3731 66.1522 22.8335H28.13ZM67.8401 21.4215C67.8401 17.7077 70.8619 14.6865 74.5757 14.6865C78.2936 14.6865 81.3183 17.7077 81.3183 21.4215C81.3183 25.1394 78.2936 28.1641 74.5757 28.1641C70.8619 28.1641 67.8401 25.1394 67.8401 21.4215Z" fill="#42CBF2"/>
<path d="M19.6993 18.3147C17.9862 18.3147 16.5926 19.7089 16.5926 21.4221C16.5926 23.1393 17.9862 24.5366 19.6993 24.5366C21.4164 24.5366 22.8138 23.1395 22.8138 21.4221C22.8138 19.7089 21.4166 18.3147 19.6993 18.3147ZM19.6993 22.7223C18.9865 22.7223 18.4066 22.1388 18.4066 21.4219C18.4066 20.7086 18.9865 20.1287 19.6993 20.1287C20.4162 20.1287 20.9996 20.7086 20.9996 21.4219C20.9996 22.1388 20.4162 22.7223 19.6993 22.7223Z" fill="#42CBF2"/>
</svg>
