<svg width="72" height="72" viewBox="0 0 72 72" fill="none" xmlns="http://www.w3.org/2000/svg">
<path d="M71.2125 42.0751L67.725 40.9501C67.5 40.2751 67.1625 39.6 66.825 38.925L68.5125 35.6625C68.7375 35.2125 68.625 34.7625 68.2875 34.425L65.025 31.1625C64.6875 30.825 64.125 30.7125 63.7875 30.9375L62.6625 31.5L62.775 29.7C62.8875 28.575 62.4375 27.45 61.65 26.55L63.675 26.325C65.925 26.1 67.725 24.075 67.5 21.6C67.275 19.575 65.475 17.8875 63.3375 17.8875L59.5125 17.775C58.1625 17.775 56.925 18.3375 56.1375 19.4625C55.125 16.9875 53.775 14.7375 52.2 12.15C50.85 10.0125 48.4875 8.55005 45.9 8.55005H21.4875C18.9 8.55005 16.5375 9.90005 15.1875 12.15C13.6125 14.7375 12.375 16.875 11.3625 19.35C10.4625 18.225 9.3375 17.775 8.1 17.775L4.275 17.8875C1.9125 18 0 19.9125 0 22.05C0 24.1875 1.6875 25.9875 3.9375 26.325L5.85 26.55C5.0625 27.3375 4.6125 28.4625 4.725 29.7L5.625 44.4375C5.7375 45.7875 6.525 46.9126 7.65 47.4751V50.175C7.65 52.0875 9.225 53.55 11.1375 53.55H17.55C19.4625 53.55 20.925 51.975 20.925 50.175V47.925H36.3375C36.45 48.2625 36.675 48.6 37.0125 48.7125L40.5 49.8375C40.725 50.5125 41.0625 51.1875 41.4 51.8625L39.6 55.1251C39.375 55.5751 39.4875 56.025 39.825 56.3625L43.0875 59.6251C43.425 59.9626 43.9875 60.0751 44.325 59.8501L47.5875 58.1626C48.2625 58.5001 48.9375 58.8376 49.6125 59.0626L50.7375 62.55C50.85 63 51.3 63.3375 51.75 63.3375H56.3625C56.8125 63.3375 57.2625 63 57.375 62.55L58.5 59.0626C59.175 58.8376 59.85 58.5001 60.525 58.1626L63.7875 59.8501C64.2375 60.0751 64.6875 59.9626 65.025 59.6251L68.2875 56.3625C68.625 56.025 68.7375 55.4626 68.5125 55.1251L66.825 51.8625C67.1625 51.1875 67.5 50.5125 67.725 49.8375L71.2125 48.7125C71.6625 48.6 72 48.1501 72 47.7001V43.0875C72 42.6375 71.6625 42.1876 71.2125 42.0751ZM40.3875 40.9501L39.9375 41.0625H27.45C26.8875 41.0625 26.325 41.5125 26.325 42.1875C26.325 42.8625 26.775 43.3125 27.45 43.3125H36.1125V45.7876C16.65 45.7876 28.8 45.7876 9.3375 45.7876C8.55 45.7876 7.7625 45.1126 7.7625 44.3251L7.3125 36C7.875 36.1125 14.4 39.9375 18.5625 34.2L19.2375 34.875C20.8125 36.7875 22.95 37.9125 25.3125 37.9125H40.8375L41.2875 38.8125C40.95 39.4875 40.6125 40.2751 40.3875 40.9501ZM6.8625 29.475C6.8625 29.3625 6.8625 29.1375 6.8625 29.025C11.475 29.25 14.7375 30.9375 16.875 32.7375C13.725 37.575 8.1 33.75 6.975 33.6375L6.8625 29.475ZM39.7125 34.3125C39.375 34.65 39.2625 35.2125 39.4875 35.55L39.6 35.775H25.2C23.5125 35.775 21.9375 34.9875 20.8125 33.6375C18 30.0375 13.95 27.675 8.8875 27C9.675 26.4375 10.35 25.65 11.025 24.8625H56.7C57.4875 25.875 58.5 26.775 59.625 27.5625C59.7375 27.675 60.8625 28.125 60.75 29.475L60.525 32.5125C59.85 32.175 59.2875 31.95 58.6125 31.725L57.4875 28.2375C57.375 27.7875 56.925 27.45 56.475 27.45H51.75C51.3 27.45 50.85 27.7875 50.7375 28.2375L49.6125 31.725C48.9375 31.95 48.2625 32.2875 47.5875 32.625L44.325 30.9375C43.875 30.7125 43.425 30.825 43.0875 31.1625L39.7125 34.3125ZM59.5125 20.025L63.3375 20.1375C64.4625 20.1375 65.25 20.925 65.3625 21.9375C65.475 23.0625 64.575 24.075 63.45 24.1875L59.2875 24.6375C58.725 24.075 58.1625 23.4 57.7125 22.725L57.6 21.9375C57.4875 20.8125 58.6125 19.9125 59.5125 20.025ZM17.1 13.3875C18 11.8125 19.6875 10.9125 21.4875 10.9125H45.9C47.7 10.9125 49.3875 11.925 50.2875 13.3875C52.0875 16.3125 53.325 18.5625 54.45 21.2625C54.675 21.7125 54.9 22.275 55.125 22.725H12.2625C12.4875 22.275 12.7125 21.825 12.9375 21.2625C14.0625 18.5625 15.3 16.3125 17.1 13.3875ZM2.25 22.05C2.25 21.0375 3.15 20.025 4.3875 20.025L8.2125 19.9125C9.3375 19.9125 10.2375 20.8125 10.125 21.825L9.9 22.5C9.45 23.2875 8.8875 24.075 8.2125 24.6375L4.1625 24.1875C3.0375 24.075 2.25 23.175 2.25 22.05ZM18.5625 50.175C18.5625 50.85 18 51.4126 17.325 51.4126H11.025C10.35 51.4126 9.7875 50.85 9.7875 50.175V47.925H18.675V50.175H18.5625ZM69.75 46.9126L66.4875 47.925C66.15 48.0375 65.8125 48.375 65.8125 48.7125C65.5875 49.6125 65.1375 50.5126 64.6875 51.4126C64.4625 51.7501 64.4625 52.0875 64.6875 52.425L66.2625 55.4625L64.125 57.6001L61.0875 56.025C60.75 55.8 60.4125 55.9125 60.075 56.025C59.175 56.475 58.275 56.925 57.375 57.15C57.0375 57.2625 56.7 57.4876 56.5875 57.8251L55.575 61.0875H52.5375L51.525 57.8251C51.4125 57.4876 51.075 57.15 50.7375 57.15C49.8375 56.925 48.9375 56.475 48.0375 56.025C47.7 55.8 47.3625 55.8 47.025 56.025L43.9875 57.6001L41.85 55.4625L43.425 52.425C43.65 52.0875 43.5375 51.7501 43.425 51.4126C42.975 50.5126 42.525 49.6125 42.3 48.7125C42.1875 48.375 41.9625 48.0375 41.625 47.925L38.3625 46.9126V46.8V43.875L41.625 42.8625C41.9625 42.75 42.3 42.4126 42.3 42.0751C42.525 41.1751 42.975 40.275 43.425 39.375C43.65 39.0375 43.65 38.7 43.425 38.3625L41.85 35.325L43.9875 33.1875L47.025 34.7625C47.3625 34.9875 47.7 34.875 48.0375 34.7625C48.9375 34.3125 49.8375 33.8625 50.7375 33.6375C51.075 33.525 51.4125 33.3 51.525 32.9625L52.5375 29.7H55.575L56.5875 32.9625C56.7 33.3 57.0375 33.6375 57.375 33.6375C58.275 33.8625 59.175 34.3125 60.075 34.7625C60.4125 34.9875 60.75 34.9875 61.0875 34.7625L64.125 33.1875L66.2625 35.325L64.6875 38.3625C64.4625 38.7 64.575 39.0375 64.6875 39.375C65.1375 40.275 65.5875 41.1751 65.8125 42.0751C65.925 42.4126 66.15 42.75 66.4875 42.8625L69.75 43.875V46.9126Z" fill="#42CBF2"/>
<path d="M53.2125 38.1375C49.275 38.1375 46.0125 41.3999 46.0125 45.3374C46.0125 49.2749 49.275 52.5375 53.2125 52.5375C57.15 52.5375 60.4125 49.2749 60.4125 45.3374C60.4125 41.3999 57.2625 38.1375 53.2125 38.1375ZM53.2125 50.3999C50.4 50.3999 48.15 48.1499 48.15 45.3374C48.15 42.5249 50.4 40.2749 53.2125 40.2749C56.025 40.2749 58.275 42.5249 58.275 45.3374C58.275 48.1499 56.025 50.3999 53.2125 50.3999Z" fill="#42CBF2"/>
</svg>
