<svg width="62" height="62" viewBox="0 0 62 62" fill="none" xmlns="http://www.w3.org/2000/svg">
<g clip-path="url(#clip0_24_239)">
<path d="M42.2106 39.2666H19.7873C18.8519 39.2657 18.0163 39.8514 17.6979 40.731C17.3796 41.6106 17.647 42.5954 18.3664 43.1933L21.7155 45.9833C22.1147 46.3169 22.6182 46.4998 23.1384 46.5H38.8595C39.3794 46.4999 39.8827 46.3169 40.2814 45.9833L43.6315 43.1933C44.3509 42.5954 44.6183 41.6106 44.3 40.731C43.9817 39.8514 43.1461 39.2657 42.2106 39.2666ZM42.3139 41.6062L38.9639 44.3962C38.9348 44.4199 38.8981 44.4323 38.8605 44.4312H23.1404C23.1027 44.4324 23.0659 44.4194 23.0371 44.395L19.687 41.605C19.6317 41.5669 19.612 41.4944 19.6406 41.4335C19.6566 41.368 19.7181 41.3241 19.7852 41.3301H42.2085C42.2756 41.3241 42.337 41.368 42.3531 41.4335C42.3826 41.4941 42.3638 41.5672 42.3087 41.6061H42.3139V41.6062Z" fill="#42CBF2"/>
<path d="M49.63 39.7833L46.2695 42.5733C45.5475 43.1701 45.2784 44.1562 45.5972 45.037C45.9159 45.9178 46.7536 46.5033 47.6903 46.5H55.7999C56.9413 46.5 57.8666 45.5747 57.8666 44.4333V41.3333C57.8666 40.1919 56.9413 39.2666 55.7999 39.2666H51.0518C50.5322 39.2681 50.0293 39.4508 49.63 39.7833ZM55.8 41.3333V44.4333H47.6904C47.6229 44.4399 47.5608 44.3959 47.5447 44.3299C47.5163 44.2707 47.5362 44.1996 47.5911 44.1636L50.9526 41.3674C50.9813 41.3428 51.0182 41.3299 51.0559 41.3312L55.8 41.3333Z" fill="#42CBF2"/>
<path d="M12.37 39.7832C11.9722 39.4515 11.4713 39.2688 10.9533 39.2666H6.19993C5.05853 39.2666 4.13324 40.1919 4.13324 41.3333V44.4333C4.13324 45.5747 5.05853 46.5 6.19993 46.5H14.3074C15.2437 46.5025 16.0808 45.9171 16.3995 45.0368C16.7183 44.1564 16.4501 43.1707 15.7293 42.5733L12.37 39.7832ZM14.4553 44.3298C14.4391 44.3957 14.3771 44.4398 14.3096 44.4332H6.19993V41.3332H10.9533C10.991 41.3319 11.0279 41.3448 11.0566 41.3694L14.4191 44.1656C14.4689 44.2047 14.4841 44.2735 14.4553 44.3298Z" fill="#42CBF2"/>
<path fill-rule="evenodd" clip-rule="evenodd" d="M13.4333 49.6001H6.19992C5.62927 49.6001 5.16663 50.0627 5.16663 50.6334C5.16663 51.204 5.62927 51.6667 6.19992 51.6667H13.4333C14.0039 51.6667 14.4666 51.204 14.4666 50.6334C14.4666 50.0627 14.0039 49.6001 13.4333 49.6001Z" fill="black"/>
<path fill-rule="evenodd" clip-rule="evenodd" d="M55.8 49.6001H48.5667C47.996 49.6001 47.5334 50.0627 47.5334 50.6334C47.5334 51.204 47.996 51.6667 48.5667 51.6667H55.8C56.3707 51.6667 56.8333 51.204 56.8333 50.6334C56.8333 50.0627 56.3707 49.6001 55.8 49.6001Z" fill="black"/>
<path fill-rule="evenodd" clip-rule="evenodd" d="M40.3 49.6001H21.7C21.1293 49.6001 20.6667 50.0627 20.6667 50.6334C20.6667 51.204 21.1293 51.6667 21.7 51.6667H40.3C40.8706 51.6667 41.3333 51.204 41.3333 50.6334C41.3333 50.0627 40.8706 49.6001 40.3 49.6001Z" fill="black"/>
<path d="M62 29.9667C62 28.2546 60.6121 26.8667 58.9 26.8667H56.8333C55.9324 26.87 55.0782 27.2672 54.4949 27.9538L52.5553 22.1423C52.0769 20.7026 50.9887 19.5467 49.5803 18.9824C49.5803 18.8532 49.6 18.7293 49.6 18.6001C49.6 8.32748 41.2725 0 31 0C20.7274 0 12.4 8.32748 12.4 18.6C12.4 18.7292 12.4166 18.8531 12.4197 18.9823C11.0124 19.5455 9.92451 20.7 9.4457 22.1381L7.50512 27.9538C6.92186 27.2672 6.06756 26.87 5.16668 26.8667H3.09999C1.38794 26.8667 7.58242e-06 28.2546 7.58242e-06 29.9667C7.58242e-06 31.6787 1.38794 33.0666 3.09999 33.0666H4.73882L0.915531 36.89C0.327895 37.4715 -0.00182306 38.2643 7.58242e-06 39.091V52.6999C0.0053978 54.009 0.832542 55.1734 2.0667 55.6098V58.9C2.0667 60.6121 3.45463 62 5.16668 62H12.4C14.1121 62 15.5 60.6121 15.5 58.9V55.8H46.5V58.9C46.5 60.6121 47.8879 62 49.6 62H56.8333C58.5454 62 59.9333 60.6121 59.9333 58.9V55.6098C61.1675 55.1735 61.9945 54.009 62 52.6999V39.091C62.0018 38.2659 61.6732 37.4743 61.0875 36.8931L57.2642 33.0698H58.9C59.7227 33.0698 60.5117 32.7427 61.0931 32.1608C61.6746 31.5786 62.0008 30.7893 62 29.9667ZM50.593 22.7923L53.3323 31H44.8238C47.2832 28.2692 48.8739 24.868 49.3932 21.2299C49.954 21.6047 50.3756 22.1538 50.593 22.7923ZM31 2.06669C40.1311 2.06669 47.5333 9.46888 47.5333 18.6C47.5333 27.7311 40.1311 35.1333 31 35.1333C21.8688 35.1333 14.4666 27.7311 14.4666 18.6C14.4775 9.47336 21.8734 2.07747 31 2.06669ZM11.408 22.7871C11.6259 22.1505 12.047 21.6033 12.6067 21.2298C13.1261 24.868 14.7167 28.2691 17.1761 30.9999H8.66758L11.408 22.7871ZM3.09999 30.9999C2.52934 30.9999 2.0667 30.5373 2.0667 29.9667C2.0667 29.396 2.52934 28.9334 3.09999 28.9334H5.16668C5.73733 28.9334 6.19998 29.396 6.19998 29.9667V30.9999H3.09999ZM13.4333 58.9C13.4333 59.4707 12.9707 59.9333 12.4 59.9333H5.16668C4.59603 59.9333 4.13339 59.4707 4.13339 58.9V55.8H13.4333V58.9ZM57.8666 58.9C57.8666 59.4707 57.404 59.9333 56.8333 59.9333H49.6C49.0293 59.9333 48.5667 59.4707 48.5667 58.9V55.8H57.8666V58.9ZM59.6233 38.3542C59.8213 38.5483 59.933 38.8137 59.9333 39.091V52.6999C59.9333 53.2706 59.4707 53.7332 58.9 53.7332H3.09999C2.52934 53.7332 2.0667 53.2706 2.0667 52.6999V39.091C2.067 38.8137 2.17867 38.5483 2.37669 38.3542L7.66113 33.0666H19.3378C26.1382 38.5778 35.8679 38.5778 42.6683 33.0666H54.345L59.6233 38.3542ZM55.8 30.9999V29.9667C55.8 29.396 56.2627 28.9334 56.8333 28.9334H58.9C59.4707 28.9334 59.9333 29.396 59.9333 29.9667C59.9333 30.5373 59.4707 30.9999 58.9 30.9999H55.8Z" fill="#42CBF2"/>
<path d="M21.8033 18.0671C22.3513 18.068 22.8773 17.8504 23.2644 17.4626L23.8069 16.9201L26.0554 19.1686L25.5388 19.6853C22.6026 19.3663 19.9617 21.4827 19.6333 24.418C19.6027 25.075 19.9264 25.6981 20.4814 26.0509C21.0364 26.4038 21.7379 26.4325 22.3199 26.1261C22.9947 25.7664 23.2499 26.0227 23.4132 26.1973C23.5765 26.372 23.8348 26.6107 23.4815 27.2679C23.1739 27.8327 23.1862 28.5176 23.5137 29.071C23.8413 29.6245 24.4358 29.9648 25.0789 29.9669H25.1409C26.0161 29.9148 26.8583 29.6148 27.5693 29.1021C29.2035 27.9769 30.0954 26.0511 29.8963 24.077L30.4316 23.5407L36.2523 29.3614C37.0617 30.1702 38.3734 30.1702 39.1829 29.3614L40.6388 27.9002C41.4429 27.0936 41.4429 25.7887 40.6388 24.9821L34.8181 19.1624L36.4519 17.5276C38.02 17.7255 39.5913 17.185 40.7061 16.0645C41.6329 15.213 42.21 14.0473 42.3253 12.7939V12.7867C42.3569 12.1293 42.0335 11.5053 41.4782 11.152C40.9228 10.7987 40.2207 10.7703 39.6386 11.0775C38.9628 11.4381 38.7014 11.1736 38.5402 11.0114C38.379 10.8492 38.1155 10.5857 38.4854 9.92123C38.7892 9.34133 38.762 8.64365 38.4141 8.08917C38.0826 7.53011 37.4688 7.2007 36.8197 7.23355C35.9442 7.28593 35.1016 7.58625 34.3903 8.09944C32.7479 9.23047 31.8573 11.1706 32.0705 13.1534L30.442 14.783L28.1934 12.5345L29.111 11.6169C29.6372 11.0904 29.8396 10.3216 29.641 9.60433C29.4422 8.88692 28.8731 8.33193 28.151 8.15121L24.6429 7.27393C23.9384 7.09971 23.1942 7.30576 22.6795 7.81742L18.1504 12.3475C17.7626 12.7351 17.5448 13.2609 17.5448 13.8092C17.5448 14.3575 17.7626 14.8833 18.1504 15.2709L20.3431 17.4636C20.7301 17.8512 21.2556 18.0684 21.8033 18.0671ZM39.1736 26.4371L37.7166 27.9002L31.8938 22.0826L33.3559 20.6204L39.1736 26.4371ZM33.9118 14.2366C34.1668 13.9818 34.2706 13.6125 34.1857 13.2622C33.9056 11.9349 34.4505 10.5694 35.5672 9.7995C35.8386 9.60555 36.1413 9.45971 36.4621 9.36858C36.025 10.434 36.2713 11.6577 37.0865 12.4711C37.9016 13.2845 39.1259 13.5281 40.1903 13.0886C40.006 13.6663 39.6778 14.1876 39.2366 14.6035C38.4903 15.3665 37.3929 15.672 36.3598 15.4043C36.0068 15.3147 35.6326 15.4175 35.375 15.675L28.0591 22.9911C27.8066 23.2435 27.7022 23.6084 27.7832 23.9562C28.0497 25.2783 27.5031 26.632 26.3933 27.3982C26.1208 27.5922 25.8171 27.7379 25.4954 27.8292C25.9654 26.7711 25.717 25.5315 24.8754 24.7364C24.3685 24.1896 23.6576 23.8776 22.912 23.8746C22.5179 23.8779 22.1281 23.9558 21.763 24.104C21.9477 23.5262 22.2762 23.0049 22.7178 22.5892C23.4742 21.821 24.5864 21.5208 25.6266 21.8038C25.981 21.8957 26.3576 21.793 26.6165 21.5341L33.9118 14.2366ZM28.9808 16.2443L27.5176 17.7075L25.2691 15.4589L26.7323 13.9957L28.9808 16.2443ZM24.1417 9.27858L27.655 10.1518L21.8033 16.0015L19.6106 13.8098L24.1417 9.27858Z" fill="#42CBF2"/>
</g>
<defs>
<clipPath id="clip0_24_239">
<rect width="62" height="62" fill="white"/>
</clipPath>
</defs>
</svg>
