<svg width="73" height="73" viewBox="0 0 73 73" fill="none" xmlns="http://www.w3.org/2000/svg">
<path fill-rule="evenodd" clip-rule="evenodd" d="M32.1573 68.6552C30.8643 68.6552 29.7466 67.6902 29.5562 66.4104L28.5554 59.6588C28.5328 59.5043 28.431 59.3742 28.2896 59.3233C27.5338 59.0406 26.7855 58.7164 26.0617 58.3583C25.9222 58.2905 25.7564 58.3055 25.6282 58.3979L20.1094 62.3787C19.0576 63.1383 17.6289 63.0233 16.711 62.1054L10.7794 56.1738C9.86527 55.2596 9.75595 53.7876 10.5268 52.7471L14.7206 47.0964C14.813 46.972 14.8299 46.8042 14.7659 46.6591C14.4662 45.9956 14.1948 45.3114 13.9573 44.6253C13.9045 44.4727 13.7744 44.3596 13.618 44.3351L6.70061 43.2155C5.41892 43.0081 4.49158 41.9168 4.49158 40.62V32.2306C4.49158 30.9357 5.45473 29.8199 6.73643 29.6295L13.7914 28.5834C13.946 28.5608 14.076 28.4515 14.1344 28.3007C14.3757 27.6467 14.6509 26.9964 14.9487 26.3669C15.0184 26.2217 15.0033 26.054 14.911 25.9258L10.7681 20.1865C10.0085 19.1347 10.1235 17.706 11.0414 16.7881L16.973 10.8565C17.8872 9.94233 19.3592 9.83301 20.3997 10.6039L26.0674 14.809C26.1937 14.9032 26.3633 14.9183 26.5122 14.8486C27.1681 14.5413 27.8467 14.2586 28.5328 14.0098C28.6835 13.9552 28.791 13.827 28.8174 13.6724L29.9332 6.77391C30.1405 5.49222 31.2319 4.56299 32.5286 4.56299H40.9162C42.2092 4.56299 43.3269 5.52614 43.5173 6.80784L44.5238 13.5914C44.5464 13.7478 44.6519 13.8798 44.799 13.9307C45.5585 14.1964 46.3125 14.5074 47.04 14.8486C47.1776 14.9127 47.3416 14.8957 47.4717 14.8033L52.9641 10.8376C54.0158 10.078 55.4446 10.193 56.3625 11.1109L62.2941 17.0425C63.2082 17.9567 63.3175 19.4288 62.5466 20.4692L58.5866 25.8089C58.4923 25.9371 58.4754 26.1086 58.547 26.2594C58.9202 27.0379 59.2557 27.8446 59.5441 28.6626C59.5988 28.8153 59.7288 28.9284 59.8834 28.951L66.3748 30.0008C67.6565 30.2082 68.5857 31.2995 68.5857 32.5963V40.9857C68.5857 42.2787 67.6206 43.3964 66.3408 43.5868L59.8607 44.5481C59.7024 44.5707 59.5705 44.6819 59.5177 44.8383C59.218 45.6808 58.8655 46.514 58.4735 47.3188C58.4019 47.4658 58.4151 47.6373 58.5074 47.7655L62.3092 53.0355C63.0687 54.0873 62.9538 55.516 62.0359 56.4339L56.1043 62.3655C55.1901 63.2796 53.718 63.389 52.6776 62.6181L47.3567 58.6712C47.2304 58.5788 47.0608 58.5619 46.9119 58.6297C46.1278 58.9916 45.3135 59.3177 44.4917 59.5929C44.3372 59.6457 44.226 59.7738 44.1996 59.9284L43.146 66.4462C42.9386 67.7279 41.8473 68.6571 40.5505 68.6571L32.1573 68.6552ZM27.0362 56.3849C27.694 56.7091 28.3744 57.005 29.0605 57.2613C29.9502 57.5949 30.591 58.3885 30.7305 59.3365L31.7313 66.0899C31.7634 66.2992 31.9443 66.4575 32.1554 66.4575H40.5449C40.7579 66.4575 40.935 66.3067 40.969 66.0956L42.0226 59.5778C42.179 58.6146 42.8538 57.8211 43.7849 57.5082C44.5313 57.2576 45.2721 56.9616 45.9845 56.6337C46.8647 56.2265 47.8901 56.3321 48.6629 56.9051L53.9819 60.8501C54.1516 60.9764 54.3928 60.9575 54.5417 60.8086L60.4733 54.877C60.6222 54.7281 60.643 54.4944 60.5186 54.3229L56.7149 49.0509C56.1457 48.2631 56.0609 47.2264 56.4888 46.35C56.845 45.6187 57.1654 44.8628 57.4368 44.0976C57.7648 43.174 58.5696 42.5124 59.5309 42.3711L66.011 41.4098C66.2202 41.3778 66.3785 41.1968 66.3785 40.9857V32.5963C66.3785 32.3833 66.2259 32.2061 66.0166 32.1722L59.5252 31.1223C58.5734 30.9678 57.7836 30.3043 57.4632 29.392C57.2031 28.6513 56.8978 27.9181 56.5585 27.2113C56.1325 26.3235 56.2286 25.2831 56.8129 24.4971L60.773 19.1573C60.8993 18.9877 60.8804 18.7464 60.7315 18.5975L54.7999 12.6659C54.651 12.5151 54.4173 12.4963 54.2458 12.6207L48.7515 16.5845C47.9749 17.1443 46.959 17.2404 46.0976 16.8371C45.436 16.5261 44.7518 16.2452 44.062 16.004C43.1441 15.6798 42.4825 14.8787 42.3392 13.9118L41.3346 7.13014C41.3026 6.92093 41.1216 6.7626 40.9105 6.7626H32.5211C32.3081 6.7626 32.1309 6.91339 32.097 7.12449L30.9812 14.023C30.8304 14.9636 30.1745 15.7514 29.2754 16.0775C28.6534 16.3018 28.037 16.5581 27.4395 16.839C26.5593 17.2536 25.5283 17.15 24.7499 16.5732L19.0803 12.3681C18.9106 12.2418 18.6694 12.2607 18.5205 12.4096L12.5926 18.3431C12.4437 18.492 12.423 18.7257 12.5474 18.8972L16.6903 24.6385C17.2501 25.415 17.3443 26.4404 16.9315 27.3093C16.6601 27.8804 16.4113 28.4722 16.1908 29.0678C15.8553 29.9726 15.058 30.6228 14.108 30.7623L7.05308 31.8084C6.84386 31.8404 6.68554 32.0214 6.68554 32.2325V40.62C6.68554 40.833 6.83632 41.0102 7.04742 41.0441L13.9648 42.1637C14.9223 42.3183 15.7121 42.9855 16.0325 43.9053C16.2473 44.5292 16.4943 45.1493 16.7676 45.7525C17.1615 46.6233 17.0541 47.6411 16.4848 48.4063L12.2929 54.0571C12.1667 54.2267 12.1855 54.468 12.3344 54.6169L18.2641 60.5485C18.413 60.6993 18.6468 60.7181 18.8183 60.5937L24.3371 56.6129C25.1589 56.0249 26.1918 55.9664 27.0362 56.3849Z" fill="#42CBF2"/>
<path fill-rule="evenodd" clip-rule="evenodd" d="M36.5339 54.9244C26.4349 54.9244 18.217 46.7083 18.217 36.6074C18.217 26.5066 26.433 18.2905 36.5339 18.2905C46.6348 18.2905 54.8508 26.5066 54.8508 36.6074C54.8508 46.7083 46.6329 54.9244 36.5339 54.9244ZM36.5339 20.492C27.6469 20.492 20.4185 27.7204 20.4185 36.6074C20.4185 45.4945 27.6469 52.7229 36.5339 52.7229C45.4209 52.7229 52.6493 45.4945 52.6493 36.6074C52.6493 27.7204 45.419 20.492 36.5339 20.492Z" fill="#42CBF2"/>
<path fill-rule="evenodd" clip-rule="evenodd" d="M40.3451 54.5001C39.7382 54.5001 39.2443 54.0081 39.2443 53.3993V43.4606C39.2443 43.044 39.478 42.6652 39.8475 42.4786C44.2712 40.2394 45.174 34.4849 42 30.9848V35.3237C42 35.7553 41.7493 36.1455 41.3572 36.3245L36.9919 38.3206C36.7017 38.4544 36.3681 38.4544 36.0759 38.3206L31.7106 36.3245C31.3186 36.1455 31.0679 35.7534 31.0679 35.3237V30.9867C27.8919 34.4849 28.7966 40.2431 33.2204 42.4804C33.5898 42.6689 33.8235 43.0478 33.8235 43.4624V53.4012C33.8235 54.0081 33.3316 54.502 32.7228 54.502C32.114 54.502 31.622 54.01 31.622 53.4012V44.1127C25.468 40.4354 25.402 31.4748 31.5994 27.7315C32.3326 27.2886 33.2694 27.8164 33.2694 28.6721V34.6169L36.5339 36.1097L39.7985 34.6169V28.6721C39.7985 27.8164 40.7352 27.2886 41.4684 27.7315C47.6715 31.4805 47.5923 40.4392 41.4458 44.1127V53.4012C41.4458 54.0081 40.952 54.5001 40.3451 54.5001Z" fill="#42CBF2"/>
</svg>
